<svg width="271" height="78" viewBox="0 0 271 78" fill="none" xmlns="http://www.w3.org/2000/svg">
<path d="M0 53.4621V52.5812C2.12339 52.5078 3.73424 51.6085 4.83254 49.8833C5.93085 48.1948 6.48 45.8089 6.48 42.7257V20.7021C6.48 19.0504 6.20542 17.8391 5.65627 17.0682C5.10712 16.2607 4.06373 15.8569 2.5261 15.8569V14.7007C3.69763 14.8108 4.83254 14.8659 5.93085 14.8659C7.13898 14.8659 8.2922 14.8108 9.39051 14.7007C10.4888 14.5539 11.4956 14.352 12.4108 14.0951V37.1647C12.4108 39.0734 12.2827 40.8353 12.0264 42.4504C11.7702 44.0654 11.3492 45.5153 10.7634 46.8C10.1776 48.0847 9.40881 49.2226 8.45695 50.2137C7.54169 51.168 6.37017 51.9388 4.94237 52.5261C3.55119 53.1501 1.90373 53.4621 0 53.4621ZM8.95119 0.825885C10.0861 0.825885 11.038 1.19294 11.8068 1.92706C12.5756 2.62447 12.96 3.50541 12.96 4.56988C12.96 5.63436 12.5756 6.53365 11.8068 7.26777C11.038 7.96518 10.0861 8.31388 8.95119 8.31388C7.81627 8.31388 6.86441 7.96518 6.09559 7.26777C5.32678 6.53365 4.94237 5.63436 4.94237 4.56988C4.94237 3.50541 5.32678 2.62447 6.09559 1.92706C6.86441 1.19294 7.81627 0.825885 8.95119 0.825885Z" fill="#3A5035"/>
<path d="M24.6758 0.825885C25.8107 0.825885 26.7626 1.19294 27.5314 1.92706C28.3002 2.62447 28.6846 3.50541 28.6846 4.56988C28.6846 5.63436 28.3002 6.53365 27.5314 7.26777C26.7626 7.96518 25.8107 8.31388 24.6758 8.31388C23.5409 8.31388 22.589 7.96518 21.8202 7.26777C21.0514 6.53365 20.667 5.63436 20.667 4.56988C20.667 3.50541 21.0514 2.62447 21.8202 1.92706C22.589 1.19294 23.5409 0.825885 24.6758 0.825885ZM27.9707 14.0951V37.9906C27.9707 39.5322 28.2636 40.5784 28.8494 41.1289C29.4718 41.6795 30.4968 41.9548 31.9246 41.9548V43.1111C31.3023 43.0744 30.3321 43.0377 29.0141 43.0009C27.7328 42.9275 26.4148 42.8908 25.0602 42.8908C23.7789 42.8908 22.4609 42.9275 21.1063 43.0009C19.7518 43.0377 18.745 43.0744 18.086 43.1111V41.9548C19.5138 41.9548 20.5206 41.6795 21.1063 41.1289C21.7287 40.5784 22.0399 39.5322 22.0399 37.9906V20.7021C22.0399 19.0504 21.7653 17.8391 21.2162 17.0682C20.667 16.2607 19.6236 15.8569 18.086 15.8569V14.7007C19.2575 14.8108 20.3924 14.8659 21.4907 14.8659C22.7355 14.8659 23.8887 14.8108 24.9504 14.7007C26.0487 14.5539 27.0555 14.352 27.9707 14.0951Z" fill="#3A5035"/>
<path d="M51.7383 13.9299C54.6671 13.9299 57.1017 15.1595 59.0421 17.6188C61.019 20.0414 62.0075 23.7304 62.0075 28.6857C62.0075 32.1727 61.44 35.0358 60.3051 37.2748C59.1702 39.5139 57.6509 41.184 55.7471 42.2852C53.88 43.3497 51.8482 43.8819 49.6515 43.8819C47.9309 43.8819 46.2834 43.4598 44.7092 42.6155C43.1349 41.7346 41.9268 40.4132 41.0848 38.6513L42.0732 38.9266C42.8787 40.1746 43.8854 41.1106 45.0936 41.7346C46.3017 42.3586 47.5282 42.6706 48.7729 42.6706C51.0793 42.6706 52.8 41.5511 53.9349 39.312C55.1065 37.0729 55.6922 33.6226 55.6922 28.9609C55.6922 25.9144 55.4543 23.4184 54.9783 21.4729C54.539 19.5275 53.8617 18.1144 52.9465 17.2334C52.0678 16.3158 50.9512 15.8569 49.5966 15.8569C48.0224 15.8569 46.5763 16.536 45.2583 17.8941C43.9404 19.2522 43.1532 21.216 42.897 23.7854L42.3478 22.6292C42.8604 19.8762 43.9587 17.7473 45.6427 16.2424C47.3634 14.7007 49.3953 13.9299 51.7383 13.9299ZM43.2265 0V40.8537C42.6041 41.0739 41.9634 41.3492 41.3044 41.6795C40.6454 42.0099 40.0231 42.3769 39.4373 42.7807C38.8515 43.1478 38.3024 43.5515 37.7898 43.992L36.9112 43.5515C37.0576 43.0377 37.1492 42.5238 37.1858 42.0099C37.259 41.496 37.2956 40.9638 37.2956 40.4132V6.60706C37.2956 4.9553 37.0027 3.744 36.417 2.97318C35.8678 2.16565 34.8427 1.76188 33.3417 1.76188V0.605649C34.5132 0.715765 35.6482 0.770823 36.7465 0.770823C37.9546 0.770823 39.1078 0.715765 40.2061 0.605649C41.3044 0.458825 42.3112 0.256942 43.2265 0Z" fill="#3A5035"/>
<path d="M85.9192 0.825885C87.0541 0.825885 88.006 1.19294 88.7748 1.92706C89.5436 2.62447 89.928 3.50541 89.928 4.56988C89.928 5.63436 89.5436 6.53365 88.7748 7.26777C88.006 7.96518 87.0541 8.31388 85.9192 8.31388C84.7843 8.31388 83.8324 7.96518 83.0636 7.26777C82.2948 6.53365 81.9104 5.63436 81.9104 4.56988C81.9104 3.50541 82.2948 2.62447 83.0636 1.92706C83.8324 1.19294 84.7843 0.825885 85.9192 0.825885ZM89.2141 14.0951V37.9906C89.2141 39.5322 89.507 40.5784 90.0928 41.1289C90.7151 41.6795 91.7402 41.9548 93.168 41.9548V43.1111C92.5456 43.0744 91.5755 43.0377 90.2575 43.0009C88.9762 42.9275 87.6582 42.8908 86.3036 42.8908C85.0222 42.8908 83.7043 42.9275 82.3497 43.0009C80.9951 43.0377 79.9883 43.0744 79.3294 43.1111V41.9548C80.7572 41.9548 81.7639 41.6795 82.3497 41.1289C82.9721 40.5784 83.2833 39.5322 83.2833 37.9906V20.7021C83.2833 19.0504 83.0087 17.8391 82.4595 17.0682C81.9104 16.2607 80.867 15.8569 79.3294 15.8569V14.7007C80.5009 14.8108 81.6358 14.8659 82.7341 14.8659C83.9789 14.8659 85.1321 14.8108 86.1938 14.7007C87.2921 14.5539 88.2989 14.352 89.2141 14.0951Z" fill="#3A5035"/>
<path d="M114.904 13.9299C116.368 13.9299 117.558 14.1318 118.473 14.5355C119.425 14.9026 120.212 15.4165 120.835 16.0772C121.494 16.7746 121.951 17.6739 122.207 18.7751C122.5 19.8762 122.647 21.3628 122.647 23.2348V37.9906C122.647 39.5322 122.94 40.5784 123.525 41.1289C124.148 41.6795 125.173 41.9548 126.601 41.9548V43.1111C125.978 43.0744 125.008 43.0377 123.69 43.0009C122.372 42.9275 121.073 42.8908 119.791 42.8908C118.546 42.8908 117.302 42.9275 116.057 43.0009C114.849 43.0377 113.934 43.0744 113.311 43.1111V41.9548C114.556 41.9548 115.435 41.6795 115.947 41.1289C116.46 40.5784 116.716 39.5322 116.716 37.9906V21.6932C116.716 20.6287 116.624 19.6744 116.441 18.8301C116.258 17.9492 115.874 17.2518 115.288 16.7379C114.702 16.1873 113.824 15.912 112.652 15.912C111.298 15.912 110.089 16.2974 109.028 17.0682C108.003 17.8391 107.179 18.9035 106.557 20.2616C105.971 21.5831 105.678 23.0697 105.678 24.7214V37.9906C105.678 39.5322 105.934 40.5784 106.447 41.1289C106.996 41.6795 107.875 41.9548 109.083 41.9548V43.1111C108.497 43.0744 107.6 43.0377 106.392 43.0009C105.22 42.9275 103.994 42.8908 102.713 42.8908C101.468 42.8908 100.168 42.9275 98.8136 43.0009C97.459 43.0377 96.4522 43.0744 95.7932 43.1111V41.9548C97.221 41.9548 98.2278 41.6795 98.8136 41.1289C99.4359 40.5784 99.7471 39.5322 99.7471 37.9906V20.7021C99.7471 19.0504 99.4725 17.8391 98.9234 17.0682C98.3742 16.2607 97.3308 15.8569 95.7932 15.8569V14.7007C96.9647 14.8108 98.0997 14.8659 99.198 14.8659C100.443 14.8659 101.596 14.8108 102.658 14.7007C103.756 14.5539 104.763 14.352 105.678 14.0951V20.0965C106.63 17.8207 107.929 16.224 109.577 15.3064C111.261 14.3887 113.037 13.9299 114.904 13.9299Z" fill="#3A5035"/>
<path d="M138.492 5.616V14.7558H146.07V15.8569H138.492V37.4951C138.492 39 138.767 40.0645 139.316 40.6885C139.865 41.3125 140.652 41.6245 141.677 41.6245C142.629 41.6245 143.471 41.2391 144.203 40.4682C144.972 39.6974 145.631 38.3944 146.18 36.5591L147.223 36.9445C146.784 38.8899 145.997 40.5417 144.862 41.8998C143.764 43.2212 142.135 43.8819 139.975 43.8819C138.73 43.8819 137.687 43.7167 136.845 43.3864C136.002 43.0927 135.27 42.6522 134.648 42.0649C133.842 41.2207 133.293 40.2113 133 39.0367C132.708 37.8621 132.561 36.3021 132.561 34.3567V15.8569H127.509V14.7558H132.561V6.71718C133.696 6.68047 134.758 6.58871 135.746 6.44188C136.735 6.25836 137.65 5.98306 138.492 5.616Z" fill="#3A5035"/>
<path d="M161.807 13.9299C165.029 13.9299 167.555 14.9026 169.385 16.848C171.216 18.7934 172.131 21.8767 172.131 26.0979H153.185L153.075 25.0518H166.31C166.347 23.2532 166.2 21.6014 165.871 20.0965C165.541 18.5548 165.029 17.3252 164.333 16.4075C163.637 15.4899 162.722 15.0311 161.587 15.0311C160.013 15.0311 158.64 15.8753 157.469 17.5638C156.334 19.2155 155.638 21.8767 155.382 25.5473L155.547 25.8226C155.51 26.3365 155.473 26.9054 155.437 27.5294C155.4 28.1167 155.382 28.704 155.382 29.2913C155.382 31.824 155.766 33.9529 156.535 35.6781C157.304 37.4033 158.311 38.7064 159.555 39.5873C160.8 40.4315 162.063 40.8537 163.345 40.8537C164.333 40.8537 165.285 40.7068 166.2 40.4132C167.152 40.0828 168.049 39.5506 168.891 38.8165C169.733 38.0457 170.484 36.9995 171.143 35.6781L172.241 36.1186C171.802 37.3666 171.124 38.5962 170.209 39.8075C169.294 41.0188 168.122 42.0099 166.694 42.7807C165.267 43.5148 163.601 43.8819 161.697 43.8819C159.134 43.8819 156.901 43.3129 154.997 42.1751C153.094 41.0005 151.629 39.3304 150.604 37.1647C149.579 34.9991 149.067 32.4297 149.067 29.4565C149.067 26.1897 149.597 23.4 150.659 21.0875C151.721 18.7751 153.204 17.0132 155.107 15.8019C157.048 14.5539 159.281 13.9299 161.807 13.9299Z" fill="#3A5035"/>
<path d="M193.489 13.9299C194.551 13.9299 195.448 14.1501 196.18 14.5906C196.949 15.0311 197.516 15.6 197.882 16.2974C198.285 16.9581 198.486 17.7106 198.486 18.5548C198.486 19.6193 198.157 20.5369 197.498 21.3078C196.876 22.0419 196.034 22.4089 194.972 22.4089C194.057 22.4089 193.27 22.1336 192.611 21.5831C191.988 21.0325 191.677 20.28 191.677 19.3257C191.677 18.5181 191.878 17.8391 192.281 17.2885C192.72 16.7012 193.215 16.2424 193.764 15.912C193.398 15.6184 192.958 15.4899 192.446 15.5266C191.457 15.5633 190.542 15.8937 189.7 16.5177C188.858 17.1049 188.144 17.8758 187.558 18.8301C186.973 19.7478 186.515 20.7388 186.185 21.8033C185.856 22.8678 185.691 23.8588 185.691 24.7765V37.44C185.691 39.2386 186.185 40.4499 187.174 41.0739C188.162 41.6612 189.535 41.9548 191.293 41.9548V43.1111C190.451 43.0744 189.242 43.0377 187.668 43.0009C186.131 42.9275 184.501 42.8908 182.781 42.8908C181.463 42.8908 180.145 42.9275 178.827 43.0009C177.509 43.0377 176.502 43.0744 175.806 43.1111V41.9548C177.234 41.9548 178.241 41.6795 178.827 41.1289C179.449 40.5784 179.76 39.5322 179.76 37.9906V20.7021C179.76 19.0504 179.486 17.8391 178.937 17.0682C178.387 16.2607 177.344 15.8569 175.806 15.8569V14.7007C176.978 14.8108 178.113 14.8659 179.211 14.8659C180.456 14.8659 181.609 14.8108 182.671 14.7007C183.769 14.5539 184.776 14.352 185.691 14.0951V20.4268C186.131 19.3624 186.716 18.3346 187.448 17.3435C188.181 16.3525 189.059 15.5449 190.084 14.9209C191.11 14.2602 192.244 13.9299 193.489 13.9299Z" fill="#3A5035"/>
<path d="M207.226 0.825885C208.361 0.825885 209.313 1.19294 210.082 1.92706C210.851 2.62447 211.235 3.50541 211.235 4.56988C211.235 5.63436 210.851 6.53365 210.082 7.26777C209.313 7.96518 208.361 8.31388 207.226 8.31388C206.091 8.31388 205.139 7.96518 204.371 7.26777C203.602 6.53365 203.217 5.63436 203.217 4.56988C203.217 3.50541 203.602 2.62447 204.371 1.92706C205.139 1.19294 206.091 0.825885 207.226 0.825885ZM210.521 14.0951V37.9906C210.521 39.5322 210.814 40.5784 211.4 41.1289C212.022 41.6795 213.047 41.9548 214.475 41.9548V43.1111C213.853 43.0744 212.882 43.0377 211.564 43.0009C210.283 42.9275 208.965 42.8908 207.611 42.8908C206.329 42.8908 205.011 42.9275 203.657 43.0009C202.302 43.0377 201.295 43.0744 200.636 43.1111V41.9548C202.064 41.9548 203.071 41.6795 203.657 41.1289C204.279 40.5784 204.59 39.5322 204.59 37.9906V20.7021C204.59 19.0504 204.316 17.8391 203.766 17.0682C203.217 16.2607 202.174 15.8569 200.636 15.8569V14.7007C201.808 14.8108 202.943 14.8659 204.041 14.8659C205.286 14.8659 206.439 14.8108 207.501 14.7007C208.599 14.5539 209.606 14.352 210.521 14.0951Z" fill="#3A5035"/>
<path d="M230.829 13.9299C233.282 13.9299 235.46 14.4438 237.364 15.4715C239.268 16.4993 240.787 18.1144 241.922 20.3167C243.057 22.5191 243.624 25.4005 243.624 28.9609C243.624 32.5214 243.057 35.4028 241.922 37.6052C240.787 39.7708 239.268 41.3675 237.364 42.3953C235.46 43.3864 233.282 43.8819 230.829 43.8819C228.413 43.8819 226.234 43.3864 224.294 42.3953C222.354 41.3675 220.816 39.7708 219.681 37.6052C218.583 35.4028 218.034 32.5214 218.034 28.9609C218.034 25.4005 218.583 22.5191 219.681 20.3167C220.816 18.1144 222.354 16.4993 224.294 15.4715C226.234 14.4438 228.413 13.9299 230.829 13.9299ZM230.829 15.0311C228.925 15.0311 227.369 16.1322 226.161 18.3346C224.953 20.5002 224.349 24.0424 224.349 28.9609C224.349 33.8795 224.953 37.4217 226.161 39.5873C227.369 41.7162 228.925 42.7807 230.829 42.7807C232.696 42.7807 234.234 41.7162 235.442 39.5873C236.687 37.4217 237.309 33.8795 237.309 28.9609C237.309 24.0424 236.687 20.5002 235.442 18.3346C234.234 16.1322 232.696 15.0311 230.829 15.0311Z" fill="#3A5035"/>
<path d="M265.19 13.9299C266.252 13.9299 267.149 14.1501 267.881 14.5906C268.65 15.0311 269.217 15.6 269.583 16.2974C269.986 16.9581 270.187 17.7106 270.187 18.5548C270.187 19.6193 269.858 20.5369 269.199 21.3078C268.576 22.0419 267.734 22.4089 266.673 22.4089C265.758 22.4089 264.97 22.1336 264.311 21.5831C263.689 21.0325 263.378 20.28 263.378 19.3257C263.378 18.5181 263.579 17.8391 263.982 17.2885C264.421 16.7012 264.915 16.2424 265.465 15.912C265.099 15.6184 264.659 15.4899 264.147 15.5266C263.158 15.5633 262.243 15.8937 261.401 16.5177C260.559 17.1049 259.845 17.8758 259.259 18.8301C258.673 19.7478 258.216 20.7388 257.886 21.8033C257.557 22.8678 257.392 23.8588 257.392 24.7765V37.44C257.392 39.2386 257.886 40.4499 258.875 41.0739C259.863 41.6612 261.236 41.9548 262.993 41.9548V43.1111C262.151 43.0744 260.943 43.0377 259.369 43.0009C257.831 42.9275 256.202 42.8908 254.482 42.8908C253.164 42.8908 251.846 42.9275 250.528 43.0009C249.21 43.0377 248.203 43.0744 247.507 43.1111V41.9548C248.935 41.9548 249.942 41.6795 250.528 41.1289C251.15 40.5784 251.461 39.5322 251.461 37.9906V20.7021C251.461 19.0504 251.187 17.8391 250.637 17.0682C250.088 16.2607 249.045 15.8569 247.507 15.8569V14.7007C248.679 14.8108 249.814 14.8659 250.912 14.8659C252.157 14.8659 253.31 14.8108 254.372 14.7007C255.47 14.5539 256.477 14.352 257.392 14.0951V20.4268C257.831 19.3624 258.417 18.3346 259.149 17.3435C259.882 16.3525 260.76 15.5449 261.785 14.9209C262.81 14.2602 263.945 13.9299 265.19 13.9299Z" fill="#3A5035"/>
<path d="M161.478 75.3939C161.606 74.9718 161.716 74.2376 161.716 73.6687L161.735 71.3379L161.789 70.4753C161.789 70.2918 161.735 70.1633 161.552 70.0899C161.039 69.9064 159.703 69.6678 159.044 69.6311C158.842 69.6127 158.787 69.6678 158.751 69.7412L158.549 70.3285C158.971 70.512 159.41 70.8056 159.629 71.0626V72.3656L154.87 72.4207V71.9068L154.888 71.0626C154.888 70.8424 154.834 70.7139 154.651 70.6772C154.138 70.5304 152.783 70.4019 152.124 70.4019C151.923 70.4019 151.868 70.4569 151.85 70.5304L151.685 71.0809C152.088 71.2094 152.545 71.5031 152.747 71.76L152.82 75.9812C152.82 76.3299 152.912 76.8988 153.076 77.2659H154.229C154.376 77.1558 154.541 76.9722 154.651 76.6969C156.426 76.6602 160.252 76.6235 161.844 76.6419C161.973 76.5134 162.064 76.1647 162.064 75.816C162.064 75.7059 162.009 75.6141 161.899 75.5774L161.478 75.3939ZM159.629 73.6136V75.3572L154.815 75.4122L154.852 73.6687L159.629 73.6136ZM156.975 68.8419C157.122 69.0071 157.341 69.1539 157.506 69.1722C157.836 69.264 158.257 69.0621 158.366 68.7501C158.421 68.6033 158.385 68.4014 158.238 68.1078C158.055 67.7774 157.653 67.1901 157.323 66.8047L156.481 66.6028L154.98 65.4466C155.749 64.6024 156.371 63.7214 156.847 62.8221L157.286 62.1431C157.36 62.0329 157.341 61.9045 157.232 61.8311C156.994 61.7026 156.371 61.4089 156.042 61.2805C155.914 61.2438 155.749 61.2438 155.621 61.2805L154.87 61.6108C153.992 61.6659 151.118 61.7026 150.44 61.7026C149.928 61.7026 149.214 61.6659 148.646 61.5741L148.5 61.8311C148.463 61.9045 148.482 61.9779 148.555 62.0696C148.976 62.4734 149.58 62.9139 150.147 63.1892C150.514 63.0607 151.191 62.9322 151.575 62.9139C151.96 62.8772 153.333 62.8588 154.284 62.8588C153.058 65.1713 150.825 67.704 147.969 69.576C147.896 69.6678 147.914 69.7412 147.987 69.8146L148.28 70.1266C148.317 70.1816 148.408 70.1816 148.555 70.1082C150.623 69.1906 152.527 67.8692 154.065 66.4009L156.975 68.8419ZM159.703 66.1073C159.703 66.8231 159.794 68.6033 159.922 69.1722H161.149C161.533 68.328 161.808 66.6212 161.808 65.5567V61.6475L161.881 60.5647C161.899 60.3261 161.808 60.1609 161.625 60.0692C160.984 59.7939 159.611 59.5186 158.751 59.4819C158.568 59.4819 158.513 59.5369 158.476 59.6104L158.257 60.2711C158.879 60.5096 159.446 60.9134 159.703 61.3172V66.1073Z" fill="#3A5035"/>
<path d="M175.533 68.2546C175.533 67.1351 174.618 66.2174 173.501 66.2174C172.385 66.2174 171.47 67.1351 171.47 68.2546C171.47 69.3741 172.385 70.2918 173.501 70.2918C174.618 70.2918 175.533 69.3741 175.533 68.2546Z" fill="#3A5035"/>
<path d="M196.108 75.4306C194.973 75.4856 192.173 75.504 190.91 75.4856C190.69 75.4856 190.58 75.3755 190.58 75.1186V73.8706L197.499 73.7788C197.609 73.6504 197.737 73.3384 197.737 73.008C197.737 72.8979 197.682 72.8061 197.573 72.7694L197.243 72.6042C197.39 72.2188 197.573 71.4113 197.609 70.9525L197.902 70.3285C197.957 70.1816 197.939 70.0715 197.866 70.0165C197.628 69.888 197.097 69.6494 196.822 69.5576C196.694 69.5026 196.566 69.5026 196.474 69.5576L195.76 69.8696C194.717 69.9064 190.434 69.9431 189.518 69.9431C189.061 69.9431 188.164 69.8696 187.615 69.7779L187.468 70.0348C187.45 70.1266 187.45 70.1816 187.523 70.2551C187.981 70.6772 188.567 71.1176 189.189 71.4113C189.683 71.2828 190.415 71.1727 190.836 71.1544C191.477 71.1176 194.241 71.0809 195.449 71.0809C195.468 71.3929 195.468 72.1821 195.431 72.5492L195.065 72.6409C194.333 72.6776 191.642 72.7144 190.617 72.7144C189.994 72.6409 188.365 72.6042 187.688 72.6042C187.56 72.6042 187.487 72.6593 187.468 72.7144L187.395 73.1915C187.816 73.32 188.2 73.5219 188.438 73.7788V75.3388C188.438 76.2932 188.878 76.7336 190.049 76.752H190.068L198.213 76.6969C198.341 76.6969 198.451 76.6786 198.543 76.5868C198.653 76.4767 198.781 76.1464 198.781 75.6875C198.781 75.504 198.671 75.3572 198.47 75.3021C198.067 75.2104 197.243 75.1369 196.676 75.1553L196.108 75.4306ZM192.484 68.4381C192.649 68.5849 192.868 68.7318 193.033 68.7868C193.362 68.8602 193.838 68.6216 193.948 68.3096C194.021 68.1445 193.985 67.9242 193.82 67.6122C193.637 67.2635 193.198 66.6395 192.868 66.2358L191.898 65.9788L190.049 64.4555C190.452 63.7765 190.745 63.0791 190.946 62.4C191.001 62.2899 191.038 62.1064 191.038 61.9045C191.038 61.7393 190.91 61.5741 190.708 61.4824C190.214 61.2071 188.896 60.8216 188.109 60.7299C187.944 60.7115 187.871 60.7299 187.834 60.8033L187.541 61.3722C187.981 61.6108 188.402 61.9779 188.585 62.3266C187.962 64.6207 186.242 67.1167 183.789 69.1722C183.697 69.264 183.679 69.3558 183.752 69.4108L184.082 69.7045C184.155 69.7779 184.247 69.7779 184.356 69.7045C186.407 68.6033 188.109 67.1351 189.299 65.5751L192.484 68.4381ZM195.669 66.2541C195.669 66.9148 195.76 68.4198 195.907 68.9887H197.133C197.499 68.2729 197.792 66.7313 197.792 65.7402V61.6475L197.847 60.5647C197.866 60.3261 197.792 60.1609 197.591 60.0692C196.969 59.7939 195.577 59.5186 194.735 59.4819C194.552 59.4819 194.479 59.5369 194.461 59.6104L194.241 60.2711C194.863 60.5096 195.413 60.9134 195.669 61.3172V66.2541Z" fill="#3A5035"/>
<path d="M212.744 60.2527C213.312 60.4913 213.861 60.8584 214.081 61.2438V66.7864L212.213 66.8231V62.6936L212.268 61.7576C212.268 61.5374 212.195 61.3906 212.03 61.2988C211.481 61.0419 210.273 60.7849 209.541 60.7482C209.34 60.7482 209.285 60.8033 209.248 60.8767L209.01 61.5007C209.541 61.7209 210.053 62.0513 210.273 62.4184V69.5209C208.681 69.9064 206.594 70.1449 205.203 70.1633C204.965 70.1633 204.855 70.0348 204.855 69.8146V64.584L204.891 63.6296C204.891 63.3911 204.782 63.2259 204.562 63.1892C204.013 63.0607 202.75 62.9506 202.054 62.9506C201.889 62.9506 201.798 63.024 201.78 63.1158L201.651 63.6847C202.091 63.8315 202.53 64.1068 202.786 64.3638V69.6861C202.786 70.0899 202.823 70.4386 202.878 70.6588C203.134 71.4113 203.72 71.8885 204.58 71.8885C204.763 71.8885 205.056 71.8885 205.294 71.8518C206.685 71.7416 208.644 71.3195 210.273 70.7322V72.4391C210.273 73.2466 210.365 75.3755 210.493 76.0913H211.573C211.957 74.9901 212.213 72.9713 212.213 71.8518V68.1445L214.081 68.1078V73.3016C214.081 74.1459 214.19 76.5868 214.319 77.2475H215.453C215.874 76.0362 216.131 73.8522 216.131 72.6776V61.5558L216.204 60.5464C216.222 60.3078 216.131 60.1426 215.948 60.0692C215.344 59.7939 214.044 59.5186 213.257 59.4819C213.074 59.4819 213.001 59.5369 212.964 59.6287L212.744 60.2527Z" fill="#3A5035"/>
<path d="M229.545 60.2527C230.186 60.5096 230.771 60.9134 231.028 61.3355V69.4292C228.575 70.0532 225.207 70.4386 223.028 70.4753C222.79 70.4753 222.681 70.3652 222.681 70.1266V64.3087L227.751 64.1068C227.916 64.1068 228.007 64.0701 228.099 63.9784C228.227 63.8499 228.355 63.4828 228.355 63.024C228.355 62.8405 228.264 62.712 228.044 62.6569C227.641 62.5835 226.818 62.5468 226.305 62.5468L225.756 62.8955C225.225 62.9689 223.376 63.0424 222.607 63.0791C221.93 62.9506 220.393 62.8772 219.715 62.8772C219.587 62.8772 219.532 62.9139 219.496 62.9873L219.367 63.5562C219.862 63.7214 220.301 63.9967 220.557 64.2904V69.9981C220.557 70.4202 220.594 70.7873 220.667 71.0075C220.905 71.7784 221.509 72.2739 222.406 72.2739C222.607 72.2739 222.882 72.2739 223.138 72.2372C225.317 72.0536 228.483 71.448 231.028 70.6405V73.1915C231.028 74.0541 231.138 76.5685 231.266 77.2475H232.456C232.895 75.9995 233.151 73.7421 233.151 72.5308V61.6842L233.224 60.5647C233.243 60.3261 233.151 60.1609 232.968 60.0692C232.309 59.7939 230.9 59.5186 230.021 59.4819C229.838 59.4819 229.801 59.5369 229.765 59.6104L229.545 60.2527Z" fill="#3A5035"/>
<path d="M250.721 67.1534L249.714 67.2085V61.6842L249.805 60.5647C249.805 60.3261 249.732 60.1609 249.531 60.0692C248.872 59.7939 247.462 59.5186 246.602 59.4819C246.419 59.4819 246.364 59.5369 246.328 59.6104L246.108 60.2527C246.767 60.5096 247.334 60.9134 247.609 61.3355V73.1915C247.609 74.0541 247.7 76.5685 247.829 77.2475H249.018C249.458 75.9995 249.714 73.7421 249.714 72.5308V68.4932L252.588 68.4198C252.771 68.4198 253.009 68.3647 253.119 68.2362C253.265 68.0894 253.375 67.6856 253.338 67.2819C253.32 67.08 253.174 66.9148 252.954 66.8598C252.624 66.7864 251.837 66.7496 251.307 66.768L250.721 67.1534ZM244.57 69.2456L242.923 67.6673C243.856 66.4744 244.607 65.2264 245.101 64.0151L245.522 63.3727C245.614 63.2626 245.614 63.1341 245.485 63.0791C245.248 62.9322 244.607 62.6386 244.277 62.5101C244.168 62.4551 243.984 62.4551 243.875 62.5101L243.106 62.8405C242.264 62.8772 239.39 62.9139 238.713 62.9139C238.2 62.9139 237.486 62.8772 236.919 62.8038L236.772 63.0607C236.736 63.1341 236.754 63.2075 236.827 63.2809C237.248 63.6847 237.852 64.1252 238.42 64.3821C238.786 64.2536 239.481 64.1252 239.866 64.1068C240.232 64.0701 241.55 64.0518 242.483 64.0701C241.403 66.8414 239.152 69.9981 236.205 72.384C236.113 72.4941 236.132 72.5675 236.205 72.6593L236.553 72.9529C236.608 72.9896 236.699 72.9896 236.827 72.9162C238.804 71.7967 240.58 70.3285 242.026 68.7134L244.918 71.8151C245.083 71.9802 245.284 72.1638 245.449 72.2188C245.76 72.3473 246.236 72.1821 246.382 71.8701C246.474 71.7049 246.437 71.4847 246.309 71.136C246.144 70.7506 245.76 70.0165 245.467 69.5576L244.57 69.2456Z" fill="#3A5035"/>
<path d="M266.423 68.7868C266.423 69.7045 266.496 71.8885 266.643 72.5859H267.851C268.272 71.5031 268.547 69.576 268.547 68.1628V61.6475L268.602 60.5647C268.62 60.3261 268.528 60.1609 268.345 60.0692C267.705 59.7939 266.332 59.5186 265.471 59.4819C265.307 59.4819 265.233 59.5369 265.197 59.6104L264.995 60.2711C265.6 60.5096 266.167 60.9134 266.423 61.3172V68.7868ZM257.124 65.6301C257.124 64.1986 258.021 63.3176 259.303 63.3176C260.566 63.3176 261.481 64.1986 261.481 65.6301C261.481 67.08 260.566 67.9426 259.303 67.9426C258.021 67.9426 257.124 67.08 257.124 65.6301ZM263.549 65.6301C263.549 63.3727 261.774 61.7944 259.303 61.7944C256.813 61.7944 255.037 63.3727 255.037 65.6301C255.037 67.9242 256.813 69.5209 259.303 69.5209C261.774 69.5209 263.549 67.9242 263.549 65.6301ZM266.698 75.3572C265.618 75.4122 263.055 75.4306 261.975 75.4122C261.646 75.4122 261.517 75.2654 261.517 74.9534V73.008L261.554 72.0353C261.554 71.7967 261.444 71.6499 261.225 71.5948C260.639 71.4664 259.266 71.3746 258.497 71.3746C258.332 71.3746 258.241 71.448 258.223 71.5214L258.094 72.072C258.57 72.2372 259.083 72.4941 259.376 72.7511V75.0268C259.376 76.128 259.888 76.6602 261.28 76.6786L269.077 76.6235C269.206 76.6235 269.334 76.5868 269.425 76.5134C269.553 76.3849 269.718 76.0179 269.718 75.504C269.718 75.3021 269.59 75.1736 269.389 75.1186C268.949 75.0268 268.052 74.9534 267.43 74.9718L266.698 75.3572Z" fill="#3A5035"/>
<rect y="67.6765" width="136.144" height="1.14706" fill="#3A5035"/>
</svg>
